<?xml version="1.0" standalone="no"?>
<!DOCTYPE svg PUBLIC "-//W3C//DTD SVG 20010904//EN"
 "http://www.w3.org/TR/2001/REC-SVG-20010904/DTD/svg10.dtd">
<svg version="1.0" xmlns="http://www.w3.org/2000/svg"
 width="450.000000pt" height="450.000000pt" viewBox="0 0 450.000000 450.000000"
 preserveAspectRatio="xMidYMid meet">
<metadata>
Created by potrace 1.16, written by Peter Selinger 2001-2019
</metadata>
<g transform="translate(0.000000,450.000000) scale(0.100000,-0.100000)"
fill="#000000" stroke="none">
<path d="M1981 4247 c-24 -63 -23 -67 4 -77 41 -15 74 -12 92 10 13 15 20 17
31 7 16 -13 82 -20 82 -9 0 4 -13 21 -28 37 -22 25 -37 31 -73 32 -26 2 -58 7
-73 13 -23 8 -28 7 -35 -13z"/>
<path d="M1967 4142 c-3 -4 -8 -28 -11 -54 -6 -41 -5 -48 15 -58 30 -17 86 -4
100 23 17 32 18 32 32 15 13 -18 77 -14 77 4 0 19 -73 79 -83 69 -6 -6 -23 -8
-38 -5 -16 2 -42 6 -59 9 -16 2 -31 1 -33 -3z"/>
<path d="M2090 4011 c0 -4 -27 -7 -61 -7 -33 1 -62 -2 -65 -6 -6 -9 16 -88 29
-105 11 -16 71 -17 98 -3 11 6 19 21 19 35 0 26 9 32 26 15 13 -13 86 0 81 14
-2 6 -18 19 -37 28 -18 9 -38 22 -43 27 -13 13 -47 15 -47 2z"/>
<path d="M2147 3904 c-3 -3 -3 -12 -1 -19 4 -8 -3 -13 -18 -13 -13 -1 -43 -5
-68 -9 -52 -10 -53 -14 -12 -93 26 -52 29 -55 65 -54 50 2 80 29 72 66 -7 31
3 36 35 16 15 -10 22 -10 32 0 6 6 20 12 30 12 10 0 18 4 18 9 0 14 -50 51
-70 51 -9 0 -25 9 -35 20 -18 20 -36 25 -48 14z"/>
<path d="M2230 3729 c0 -11 -5 -17 -10 -14 -6 4 -32 -1 -58 -10 -26 -10 -52
-19 -59 -21 -8 -2 -2 -23 18 -63 30 -60 31 -61 73 -61 55 0 90 24 81 57 -8 35
3 48 26 27 15 -14 24 -15 42 -7 12 6 31 14 41 17 18 6 18 8 -4 31 -13 14 -38
27 -56 31 -18 3 -38 12 -45 20 -18 22 -49 17 -49 -7z"/>
<path d="M2327 3593 c-4 -3 -7 -13 -7 -22 0 -10 -10 -16 -27 -17 -23 -2 -108
-23 -121 -30 -2 -1 24 -64 48 -114 10 -21 61 -24 104 -6 32 13 36 19 36 50 0
39 12 45 37 21 14 -14 17 -14 32 0 10 8 27 15 39 15 12 0 22 4 22 9 0 15 -60
61 -79 61 -10 0 -30 9 -44 20 -28 22 -31 23 -40 13z"/>
<path d="M2407 3423 c-4 -3 -7 -15 -7 -25 0 -15 -4 -17 -18 -9 -13 7 -22 7
-29 0 -6 -6 -32 -13 -59 -17 -55 -8 -56 -10 -32 -97 14 -49 15 -50 57 -53 47
-4 100 13 102 32 5 68 12 76 42 48 17 -16 26 -19 35 -10 6 6 25 11 42 10 16 0
30 3 30 8 0 15 -51 70 -65 70 -7 0 -27 11 -43 25 -31 26 -44 30 -55 18z"/>
<path d="M2460 3220 c0 -21 -15 -27 -25 -10 -4 7 -13 6 -27 -1 -11 -6 -40 -11
-64 -12 -25 0 -47 -4 -50 -8 -2 -5 -2 -38 2 -74 7 -65 7 -65 44 -75 57 -15
112 5 124 48 10 37 28 41 48 10 13 -20 17 -21 32 -9 10 8 27 11 46 7 26 -5 30
-2 30 15 0 11 -13 33 -29 47 -90 82 -131 101 -131 62z"/>
<path d="M2490 3020 c0 -20 -11 -26 -24 -13 -10 11 -158 9 -161 -2 -2 -5 -6
-38 -9 -73 l-6 -63 35 -15 c36 -15 103 -19 121 -6 6 4 17 20 25 37 16 34 30
36 43 8 8 -17 19 -20 63 -19 51 0 53 1 53 27 0 19 -12 37 -39 61 -21 18 -41
43 -45 56 -10 29 -56 32 -56 2z"/>
<path d="M2286 2819 c-2 -8 -7 -30 -10 -49 -3 -19 -9 -47 -12 -62 -6 -25 -2
-30 37 -48 24 -11 61 -20 82 -20 32 0 41 5 55 30 24 42 41 45 53 11 9 -25 15
-29 47 -28 20 1 44 -2 53 -7 44 -20 24 70 -25 111 -14 13 -26 31 -26 42 0 11
-9 21 -22 24 -21 6 -30 -1 -42 -28 -3 -6 -9 -4 -15 5 -6 8 -27 15 -53 15 -24
0 -60 4 -80 9 -29 6 -39 5 -42 -5z"/>
<path d="M2253 2642 c-6 -4 -14 -23 -18 -42 -4 -19 -14 -48 -22 -64 -15 -29
-14 -31 11 -52 27 -24 84 -44 123 -44 12 0 32 13 46 31 28 36 53 34 59 -3 2
-19 8 -22 31 -20 16 2 39 -4 52 -12 27 -18 35 -12 35 27 0 18 -11 42 -30 64
-16 18 -30 42 -30 53 0 11 -10 24 -22 31 -18 10 -24 8 -38 -11 -16 -21 -18
-22 -27 -5 -7 11 -25 18 -56 21 -26 2 -59 10 -75 18 -15 8 -33 11 -39 8z"/>
<path d="M2185 2448 c-2 -7 -11 -33 -20 -58 -28 -77 -28 -80 -10 -100 17 -19
100 -50 133 -50 8 0 27 14 43 31 32 34 56 33 61 -3 2 -19 11 -24 45 -29 23 -3
48 -11 56 -17 12 -10 16 -9 21 4 12 30 6 53 -21 85 -16 18 -32 46 -38 63 -12
36 -43 46 -62 20 -12 -17 -14 -17 -26 1 -8 10 -30 20 -52 22 -20 2 -55 13 -76
23 -45 23 -48 24 -54 8z"/>
<path d="M2105 2228 c-4 -18 -16 -50 -28 -70 -24 -44 -16 -60 48 -89 59 -27
116 -25 145 6 31 33 49 32 57 -5 5 -27 9 -30 42 -30 20 0 46 -7 57 -15 12 -8
24 -11 28 -8 15 15 4 64 -21 94 -16 18 -32 46 -38 63 -12 36 -39 45 -65 21
-17 -16 -19 -15 -30 4 -7 15 -21 21 -43 21 -18 0 -50 9 -72 20 -56 29 -72 26
-80 -12z"/>
<path d="M2016 1998 c-20 -50 -26 -76 -19 -87 15 -24 82 -54 132 -59 40 -3 49
0 70 22 33 35 59 34 63 -1 3 -25 8 -29 49 -33 26 -3 53 -11 61 -18 19 -15 28
-6 28 29 0 16 -14 44 -35 69 -19 23 -35 50 -35 59 0 10 -11 23 -25 29 -21 10
-26 9 -35 -8 -13 -25 -26 -25 -33 -1 -3 13 -17 20 -53 25 -27 3 -64 15 -82 26
-18 11 -38 20 -45 20 -7 0 -26 -32 -41 -72z"/>
<path d="M1961 1848 c-5 -13 -18 -47 -29 -76 -12 -29 -19 -59 -16 -67 9 -22
99 -55 152 -55 41 0 53 4 75 30 29 32 54 31 59 -3 2 -18 12 -23 56 -28 29 -4
58 -12 66 -18 16 -14 26 -4 26 26 0 15 -15 40 -40 64 -22 22 -40 49 -40 60 0
12 -10 23 -27 30 -23 9 -30 7 -44 -12 -17 -22 -17 -22 -27 -2 -8 14 -26 23
-55 27 -25 4 -62 16 -83 26 -49 26 -63 25 -73 -2z"/>
<path d="M1896 1648 c-33 -126 -38 -161 -25 -173 39 -36 187 -49 211 -19 49
59 66 63 85 21 8 -18 19 -22 64 -23 30 0 62 -4 72 -8 14 -7 17 -3 17 16 0 17
-16 39 -50 70 -27 25 -50 52 -50 61 0 8 -12 17 -27 20 -21 4 -32 0 -44 -15
l-17 -21 -13 21 c-10 17 -24 22 -54 22 -22 1 -65 9 -95 20 -66 23 -70 24 -74
8z"/>
<path d="M1857 1424 c-4 -4 -7 -26 -7 -48 0 -23 -5 -58 -9 -80 -5 -21 -7 -45
-4 -52 13 -34 153 -42 217 -13 13 6 27 22 30 35 4 13 15 28 26 34 15 8 24 5
44 -16 22 -24 27 -26 56 -15 18 6 50 8 71 5 31 -5 39 -3 39 9 0 18 -55 67 -75
67 -8 0 -26 16 -41 35 -19 26 -34 35 -55 35 -19 0 -29 -5 -29 -14 0 -23 -22
-31 -34 -14 -8 11 -36 17 -91 21 -44 3 -91 8 -105 12 -14 3 -29 3 -33 -1z"/>
<path d="M2120 1206 c0 -21 -19 -30 -35 -16 -11 9 -28 9 -71 0 -32 -7 -78 -9
-103 -6 -69 9 -76 0 -63 -71 7 -32 13 -74 14 -93 4 -48 37 -64 109 -50 81 15
135 52 146 97 10 43 34 54 64 28 18 -17 21 -17 68 4 27 11 61 21 75 21 58 0 9
45 -61 56 -23 3 -50 15 -59 25 -21 23 -84 26 -84 5z"/>
<path d="M2167 993 c-4 -3 -7 -15 -7 -25 0 -16 -5 -19 -29 -13 -18 4 -49 0
-78 -10 -41 -14 -74 -19 -162 -24 -17 -1 -11 -33 25 -135 16 -43 36 -83 45
-89 27 -17 120 18 172 64 38 33 47 47 47 74 0 44 22 62 57 46 22 -10 30 -9 62
13 20 14 51 30 69 37 59 20 34 39 -52 39 -30 0 -60 6 -72 15 -20 15 -66 20
-77 8z"/>
<path d="M2232 731 c-22 -24 -40 -32 -96 -41 -78 -12 -125 -30 -144 -53 -12
-14 -8 -19 27 -41 42 -27 61 -52 61 -83 0 -35 25 -53 88 -68 89 -21 117 -39
148 -92 23 -38 29 -62 33 -142 l6 -96 27 40 c46 67 61 122 62 220 1 96 -18
172 -55 219 -16 20 -18 30 -9 46 12 22 5 63 -16 98 -12 17 -24 22 -60 22 -37
0 -50 -5 -72 -29z"/>
</g>
</svg>
